<svg xmlns="http://www.w3.org/2000/svg" xmlns:xlink="http://www.w3.org/1999/xlink" width="1500" zoomAndPan="magnify" viewBox="0 0 1125 374.999991" height="500" preserveAspectRatio="xMidYMid meet" version="1.0"><defs><g/><clipPath id="7bb3229244"><path d="M 319 115 L 366 115 L 366 163 L 319 163 Z M 319 115 " clip-rule="nonzero"/></clipPath></defs><path fill="#f68f26" d="M 205.503906 149.351562 L 228.722656 172.5625 L 205.503906 195.78125 L 182.28125 172.5625 Z M 205.503906 149.351562 " fill-opacity="1" fill-rule="evenodd"/><path fill="#f68f26" d="M 245.503906 57.707031 L 273.335938 85.542969 L 245.503906 113.386719 L 217.660156 85.542969 Z M 245.503906 57.707031 " fill-opacity="1" fill-rule="evenodd"/><g clip-path="url(#7bb3229244)"><path fill="#f68f26" d="M 342.886719 115.605469 L 366.128906 138.847656 L 342.886719 162.097656 L 319.632812 138.847656 Z M 342.886719 115.605469 " fill-opacity="1" fill-rule="evenodd"/></g><path fill="#f68f26" d="M 265.433594 188.171875 L 282.988281 205.730469 L 265.433594 223.296875 L 247.863281 205.730469 Z M 265.433594 188.171875 " fill-opacity="1" fill-rule="evenodd"/><path fill="#5995fd" d="M 321.601562 160.195312 L 344.820312 183.40625 L 321.601562 206.625 L 298.394531 183.40625 Z M 321.601562 160.195312 " fill-opacity="1" fill-rule="evenodd"/><path fill="#5995fd" d="M 286.628906 105.996094 L 302.273438 121.640625 L 286.628906 137.273438 L 270.996094 121.640625 Z M 286.628906 105.996094 " fill-opacity="1" fill-rule="evenodd"/><path fill="#5995fd" d="M 261.769531 0.25 L 284.992188 23.46875 L 261.769531 46.675781 L 238.550781 23.46875 Z M 261.769531 0.25 " fill-opacity="1" fill-rule="evenodd"/><path fill="#5995fd" d="M 186.808594 75.363281 L 217.679688 106.234375 L 186.808594 137.109375 L 155.9375 106.234375 Z M 186.808594 75.363281 " fill-opacity="1" fill-rule="evenodd"/><path fill="#5995fd" d="M 255.570312 140.890625 L 272.617188 157.921875 L 255.570312 174.964844 L 238.539062 157.921875 Z M 255.570312 140.890625 " fill-opacity="1" fill-rule="evenodd"/><path fill="#5995fd" d="M 310.132812 49.289062 L 328.652344 67.808594 L 310.132812 86.328125 L 291.605469 67.808594 Z M 310.132812 49.289062 " fill-opacity="1" fill-rule="evenodd"/><path fill="#5995fd" d="M 124.132812 136.507812 L 123.183594 115.988281 L 130.902344 116.347656 L 158.089844 117.605469 L 146.699219 106.214844 L 154.535156 98.375 L 108.664062 96.242188 L 103.1875 95.992188 C 100.894531 96.417969 98.707031 97.511719 96.945312 99.273438 L 3.476562 192.742188 C 2.382812 193.835938 1.550781 195.082031 0.972656 196.414062 C -0.917969 200.777344 -0.078125 206.066406 3.476562 209.621094 L 165.074219 371.21875 C 168.628906 374.773438 173.917969 375.605469 178.28125 373.722656 C 179.617188 373.144531 180.871094 372.3125 181.964844 371.21875 L 205.546875 347.640625 L 223.757812 329.425781 L 260.644531 292.542969 L 275.4375 277.75 C 277.207031 275.980469 278.300781 273.792969 278.714844 271.496094 L 278.464844 266.042969 L 277.828125 252.421875 L 276.738281 228.816406 L 265.410156 240.144531 L 257.855469 232.589844 L 258.382812 243.816406 L 258.742188 251.535156 L 238.222656 250.585938 L 172.421875 247.523438 L 170.933594 215.460938 C 170.652344 209.316406 165.382812 204.046875 159.238281 203.761719 L 127.171875 202.273438 L 124.113281 136.472656 Z M 48.375 217.699219 L 152.21875 222.519531 L 157.039062 326.367188 L 157.519531 336.773438 L 37.957031 217.21875 L 48.363281 217.699219 Z M 177.167969 349.160156 L 177.035156 346.351562 L 176.148438 327.25 L 173.339844 266.652344 L 255.84375 270.492188 L 179.84375 346.492188 L 177.167969 349.171875 Z M 46.472656 176.695312 L 104.261719 118.90625 L 108.097656 201.410156 L 47.5 198.601562 L 28.402344 197.714844 L 25.59375 197.585938 L 28.269531 194.90625 L 46.484375 176.695312 Z M 46.472656 176.695312 " fill-opacity="1" fill-rule="evenodd"/><g fill="#5995fd" fill-opacity="1"><g transform="translate(366.136367, 243.174072)"><g><path d="M 98.015625 -20.390625 L 98.015625 0 L 13.015625 0 L 13.015625 -109.78125 L 95.984375 -109.78125 L 95.984375 -89.390625 L 38.265625 -89.390625 L 38.265625 -65.546875 L 89.234375 -65.546875 L 89.234375 -45.796875 L 38.265625 -45.796875 L 38.265625 -20.390625 Z M 98.015625 -20.390625 "/></g></g></g><g fill="#5995fd" fill-opacity="1"><g transform="translate(468.226123, 243.174072)"><g><path d="M 8.15625 -53.953125 L 52.53125 -53.953125 L 52.53125 -34.34375 L 8.15625 -34.34375 Z M 8.15625 -53.953125 "/></g></g></g><g fill="#5995fd" fill-opacity="1"><g transform="translate(525.622155, 243.174072)"><g><path d="M 13.015625 -109.78125 L 38.421875 -109.78125 L 38.421875 -20.703125 L 93.46875 -20.703125 L 93.46875 0 L 13.015625 0 Z M 13.015625 -109.78125 "/></g></g></g><g fill="#5995fd" fill-opacity="1"><g transform="translate(617.204973, 243.174072)"><g><path d="M 98.015625 -20.390625 L 98.015625 0 L 13.015625 0 L 13.015625 -109.78125 L 95.984375 -109.78125 L 95.984375 -89.390625 L 38.265625 -89.390625 L 38.265625 -65.546875 L 89.234375 -65.546875 L 89.234375 -45.796875 L 38.265625 -45.796875 L 38.265625 -20.390625 Z M 98.015625 -20.390625 "/></g></g></g><g fill="#5995fd" fill-opacity="1"><g transform="translate(719.294729, 243.174072)"><g><path d="M 35.75 -89.078125 L 0.625 -89.078125 L 0.625 -109.78125 L 96.296875 -109.78125 L 96.296875 -89.078125 L 61.15625 -89.078125 L 61.15625 0 L 35.75 0 Z M 35.75 -89.078125 "/></g></g></g><g fill="#5995fd" fill-opacity="1"><g transform="translate(813.073035, 243.174072)"><g><path d="M 35.75 -89.078125 L 0.625 -89.078125 L 0.625 -109.78125 L 96.296875 -109.78125 L 96.296875 -89.078125 L 61.15625 -89.078125 L 61.15625 0 L 35.75 0 Z M 35.75 -89.078125 "/></g></g></g><g fill="#5995fd" fill-opacity="1"><g transform="translate(906.851341, 243.174072)"><g><path d="M 98.015625 -20.390625 L 98.015625 0 L 13.015625 0 L 13.015625 -109.78125 L 95.984375 -109.78125 L 95.984375 -89.390625 L 38.265625 -89.390625 L 38.265625 -65.546875 L 89.234375 -65.546875 L 89.234375 -45.796875 L 38.265625 -45.796875 L 38.265625 -20.390625 Z M 98.015625 -20.390625 "/></g></g></g><g fill="#5995fd" fill-opacity="1"><g transform="translate(1008.941098, 243.174072)"><g><path d="M 82.96875 0 L 61.796875 -30.578125 L 38.421875 -30.578125 L 38.421875 0 L 13.015625 0 L 13.015625 -109.78125 L 60.53125 -109.78125 C 70.257812 -109.78125 78.703125 -108.160156 85.859375 -104.921875 C 93.023438 -101.679688 98.539062 -97.078125 102.40625 -91.109375 C 106.28125 -85.148438 108.21875 -78.097656 108.21875 -69.953125 C 108.21875 -61.796875 106.253906 -54.757812 102.328125 -48.84375 C 98.410156 -42.9375 92.84375 -38.414062 85.625 -35.28125 L 110.25 0 Z M 82.484375 -69.953125 C 82.484375 -76.117188 80.5 -80.847656 76.53125 -84.140625 C 72.5625 -87.429688 66.757812 -89.078125 59.125 -89.078125 L 38.421875 -89.078125 L 38.421875 -50.8125 L 59.125 -50.8125 C 66.757812 -50.8125 72.5625 -52.484375 76.53125 -55.828125 C 80.5 -59.171875 82.484375 -63.878906 82.484375 -69.953125 Z M 82.484375 -69.953125 "/></g></g></g></svg>