<svg xmlns="http://www.w3.org/2000/svg" xmlns:xlink="http://www.w3.org/1999/xlink" width="500" zoomAndPan="magnify" viewBox="0 0 375 374.999991" height="500" preserveAspectRatio="xMidYMid meet" version="1.0"><path fill="#f59e0b" d="M 375.007812 187.5 C 375.007812 190.570312 374.933594 193.636719 374.78125 196.699219 C 374.632812 199.765625 374.40625 202.824219 374.105469 205.878906 C 373.804688 208.933594 373.429688 211.976562 372.980469 215.011719 C 372.527344 218.046875 372.003906 221.070312 371.40625 224.078125 C 370.808594 227.089844 370.136719 230.082031 369.390625 233.058594 C 368.644531 236.035156 367.824219 238.992188 366.933594 241.929688 C 366.042969 244.863281 365.082031 247.777344 364.046875 250.667969 C 363.015625 253.554688 361.910156 256.417969 360.734375 259.253906 C 359.5625 262.089844 358.320312 264.890625 357.007812 267.667969 C 355.695312 270.441406 354.316406 273.179688 352.867188 275.886719 C 351.421875 278.59375 349.910156 281.261719 348.332031 283.894531 C 346.753906 286.527344 345.113281 289.117188 343.410156 291.667969 C 341.703125 294.222656 339.9375 296.730469 338.109375 299.195312 C 336.28125 301.660156 334.394531 304.078125 332.449219 306.449219 C 330.5 308.820312 328.496094 311.144531 326.4375 313.417969 C 324.375 315.691406 322.261719 317.914062 320.089844 320.082031 C 317.921875 322.253906 315.699219 324.367188 313.425781 326.429688 C 311.152344 328.488281 308.828125 330.492188 306.457031 332.4375 C 304.085938 334.386719 301.667969 336.273438 299.203125 338.101562 C 296.738281 339.929688 294.230469 341.695312 291.679688 343.402344 C 289.125 345.105469 286.535156 346.746094 283.902344 348.324219 C 281.269531 349.902344 278.601562 351.414062 275.894531 352.859375 C 273.1875 354.308594 270.449219 355.6875 267.675781 356.996094 C 264.902344 358.308594 262.097656 359.554688 259.261719 360.726562 C 256.425781 361.902344 253.566406 363.003906 250.675781 364.039062 C 247.785156 365.074219 244.875 366.035156 241.9375 366.925781 C 239 367.816406 236.042969 368.636719 233.066406 369.378906 C 230.089844 370.125 227.097656 370.796875 224.089844 371.398438 C 221.078125 371.996094 218.054688 372.519531 215.019531 372.96875 C 211.984375 373.421875 208.941406 373.796875 205.886719 374.097656 C 202.832031 374.398438 199.773438 374.625 196.707031 374.773438 C 193.644531 374.925781 190.578125 375 187.507812 375 C 184.441406 375 181.375 374.925781 178.308594 374.773438 C 175.242188 374.625 172.183594 374.398438 169.128906 374.097656 C 166.078125 373.796875 163.03125 373.421875 159.996094 372.96875 C 156.960938 372.519531 153.9375 371.996094 150.929688 371.398438 C 147.917969 370.796875 144.925781 370.125 141.949219 369.378906 C 138.972656 368.636719 136.015625 367.816406 133.082031 366.925781 C 130.144531 366.035156 127.230469 365.074219 124.339844 364.039062 C 121.453125 363.003906 118.589844 361.902344 115.753906 360.726562 C 112.921875 359.554688 110.117188 358.308594 107.34375 356.996094 C 104.566406 355.6875 101.828125 354.308594 99.121094 352.859375 C 96.414062 351.414062 93.746094 349.902344 91.113281 348.324219 C 88.480469 346.746094 85.890625 345.105469 83.339844 343.402344 C 80.789062 341.695312 78.28125 339.929688 75.816406 338.101562 C 73.351562 336.273438 70.933594 334.386719 68.558594 332.4375 C 66.1875 330.492188 63.863281 328.488281 61.589844 326.429688 C 59.316406 324.367188 57.097656 322.253906 54.925781 320.082031 C 52.757812 317.914062 50.640625 315.691406 48.582031 313.417969 C 46.519531 311.144531 44.515625 308.820312 42.570312 306.449219 C 40.621094 304.078125 38.734375 301.660156 36.90625 299.195312 C 35.078125 296.730469 33.3125 294.222656 31.609375 291.667969 C 29.902344 289.117188 28.261719 286.527344 26.683594 283.894531 C 25.105469 281.261719 23.59375 278.59375 22.148438 275.886719 C 20.703125 273.179688 19.324219 270.441406 18.011719 267.667969 C 16.699219 264.890625 15.457031 262.089844 14.28125 259.253906 C 13.105469 256.417969 12.003906 253.554688 10.96875 250.667969 C 9.933594 247.777344 8.972656 244.863281 8.082031 241.929688 C 7.191406 238.992188 6.375 236.035156 5.628906 233.058594 C 4.882812 230.082031 4.210938 227.089844 3.613281 224.078125 C 3.011719 221.070312 2.488281 218.046875 2.039062 215.011719 C 1.585938 211.976562 1.210938 208.933594 0.910156 205.878906 C 0.609375 202.824219 0.386719 199.765625 0.234375 196.699219 C 0.0820312 193.636719 0.0078125 190.570312 0.0078125 187.5 C 0.0078125 184.429688 0.0820312 181.363281 0.234375 178.300781 C 0.386719 175.234375 0.609375 172.175781 0.910156 169.121094 C 1.210938 166.066406 1.585938 163.023438 2.039062 159.988281 C 2.488281 156.953125 3.011719 153.929688 3.613281 150.921875 C 4.210938 147.910156 4.882812 144.917969 5.628906 141.941406 C 6.375 138.964844 7.191406 136.007812 8.082031 133.070312 C 8.972656 130.136719 9.933594 127.222656 10.96875 124.332031 C 12.003906 121.445312 13.105469 118.582031 14.28125 115.746094 C 15.457031 112.910156 16.699219 110.105469 18.011719 107.332031 C 19.324219 104.558594 20.703125 101.820312 22.148438 99.113281 C 23.59375 96.40625 25.105469 93.738281 26.683594 91.105469 C 28.261719 88.472656 29.902344 85.882812 31.609375 83.332031 C 33.3125 80.777344 35.078125 78.269531 36.90625 75.804688 C 38.734375 73.339844 40.621094 70.921875 42.570312 68.550781 C 44.515625 66.179688 46.519531 63.855469 48.582031 61.582031 C 50.640625 59.308594 52.757812 57.085938 54.925781 54.917969 C 57.097656 52.746094 59.316406 50.632812 61.589844 48.570312 C 63.863281 46.511719 66.1875 44.507812 68.558594 42.558594 C 70.933594 40.613281 73.351562 38.726562 75.816406 36.898438 C 78.28125 35.070312 80.789062 33.304688 83.339844 31.597656 C 85.890625 29.894531 88.480469 28.253906 91.113281 26.675781 C 93.746094 25.097656 96.414062 23.585938 99.121094 22.140625 C 101.828125 20.691406 104.566406 19.3125 107.34375 18.003906 C 110.117188 16.691406 112.921875 15.445312 115.753906 14.273438 C 118.589844 13.097656 121.453125 11.996094 124.339844 10.960938 C 127.230469 9.925781 130.144531 8.964844 133.082031 8.074219 C 136.015625 7.183594 138.972656 6.363281 141.949219 5.621094 C 144.925781 4.875 147.917969 4.203125 150.929688 3.601562 C 153.9375 3.003906 156.960938 2.480469 159.996094 2.03125 C 163.03125 1.578125 166.078125 1.203125 169.128906 0.902344 C 172.183594 0.601562 175.242188 0.375 178.308594 0.226562 C 181.375 0.0742188 184.441406 0 187.507812 0 C 190.578125 0 193.644531 0.0742188 196.707031 0.226562 C 199.773438 0.375 202.832031 0.601562 205.886719 0.902344 C 208.941406 1.203125 211.984375 1.578125 215.019531 2.03125 C 218.054688 2.480469 221.078125 3.003906 224.089844 3.601562 C 227.097656 4.203125 230.089844 4.875 233.066406 5.617188 C 236.042969 6.363281 239 7.183594 241.9375 8.074219 C 244.875 8.964844 247.785156 9.925781 250.675781 10.960938 C 253.566406 11.996094 256.425781 13.097656 259.261719 14.273438 C 262.097656 15.445312 264.902344 16.691406 267.675781 18.003906 C 270.449219 19.3125 273.1875 20.691406 275.894531 22.140625 C 278.601562 23.585938 281.269531 25.097656 283.902344 26.675781 C 286.535156 28.253906 289.125 29.894531 291.679688 31.597656 C 294.230469 33.304688 296.738281 35.070312 299.203125 36.898438 C 301.667969 38.726562 304.085938 40.613281 306.457031 42.558594 C 308.828125 44.507812 311.152344 46.511719 313.425781 48.570312 C 315.699219 50.632812 317.921875 52.746094 320.089844 54.917969 C 322.261719 57.085938 324.375 59.308594 326.4375 61.582031 C 328.496094 63.855469 330.5 66.179688 332.449219 68.550781 C 334.394531 70.921875 336.28125 73.339844 338.109375 75.804688 C 339.9375 78.269531 341.703125 80.777344 343.410156 83.332031 C 345.113281 85.882812 346.753906 88.472656 348.332031 91.105469 C 349.910156 93.738281 351.421875 96.40625 352.867188 99.113281 C 354.316406 101.820312 355.695312 104.558594 357.007812 107.332031 C 358.320312 110.105469 359.5625 112.910156 360.734375 115.746094 C 361.910156 118.582031 363.015625 121.445312 364.046875 124.332031 C 365.082031 127.222656 366.042969 130.136719 366.933594 133.070312 C 367.824219 136.007812 368.644531 138.964844 369.390625 141.941406 C 370.136719 144.917969 370.808594 147.910156 371.40625 150.921875 C 372.003906 153.929688 372.527344 156.953125 372.980469 159.988281 C 373.429688 163.023438 373.804688 166.066406 374.105469 169.121094 C 374.40625 172.175781 374.632812 175.234375 374.78125 178.300781 C 374.933594 181.363281 375.007812 184.429688 375.007812 187.5 Z M 375.007812 187.5 " fill-opacity="1" fill-rule="nonzero"/><path fill="#ffffff" d="M 75.183594 119.160156 C 77.089844 117.894531 79.375 117.160156 81.832031 117.160156 L 292.074219 117.160156 C 294.828125 117.160156 297.367188 118.085938 299.398438 119.640625 L 187.023438 180.632812 Z M 302.695312 251.503906 C 303.617188 249.796875 304.140625 247.847656 304.140625 245.773438 L 304.140625 130.707031 L 234.8125 167.671875 Z M 69.765625 129.878906 L 69.765625 245.773438 C 69.765625 246.839844 69.90625 247.871094 70.164062 248.855469 L 139.226562 167.675781 Z M 224 173.730469 L 189.972656 192.8125 C 189.058594 193.328125 188.039062 193.585938 187.023438 193.585938 C 186.003906 193.585938 184.988281 193.328125 184.074219 192.8125 L 150.039062 173.738281 L 78.714844 257.433594 C 79.710938 257.699219 80.753906 257.839844 81.832031 257.839844 L 292.074219 257.839844 C 292.148438 257.839844 292.226562 257.835938 292.304688 257.835938 Z M 224 173.730469 " fill-opacity="1" fill-rule="nonzero"/></svg>