<svg xmlns="http://www.w3.org/2000/svg" xmlns:xlink="http://www.w3.org/1999/xlink" width="400" zoomAndPan="magnify" viewBox="0 0 300 299.999988" height="400" preserveAspectRatio="xMidYMid meet" version="1.0"><defs><clipPath id="eda164a4ce"><path d="M 259 92 L 296.796875 92 L 296.796875 130 L 259 130 Z M 259 92 " clip-rule="nonzero"/></clipPath><clipPath id="7941f5ff16"><path d="M 3.546875 76 L 227 76 L 227 300 L 3.546875 300 Z M 3.546875 76 " clip-rule="nonzero"/></clipPath></defs><path fill="#5995fd" d="M 167.945312 119.480469 L 186.519531 138.050781 L 167.945312 156.625 L 149.371094 138.050781 Z M 167.945312 119.480469 " fill-opacity="1" fill-rule="evenodd"/><path fill="#5995fd" d="M 199.945312 46.167969 L 222.210938 68.433594 L 199.945312 90.710938 L 177.671875 68.433594 Z M 199.945312 46.167969 " fill-opacity="1" fill-rule="evenodd"/><g clip-path="url(#eda164a4ce)"><path fill="#5995fd" d="M 277.851562 92.484375 L 296.445312 111.078125 L 277.851562 129.679688 L 259.25 111.078125 Z M 277.851562 92.484375 " fill-opacity="1" fill-rule="evenodd"/></g><path fill="#5995fd" d="M 215.886719 150.539062 L 229.933594 164.582031 L 215.886719 178.636719 L 201.835938 164.582031 Z M 215.886719 150.539062 " fill-opacity="1" fill-rule="evenodd"/><path fill="#ffffff" d="M 260.824219 128.15625 L 279.398438 146.726562 L 260.824219 165.300781 L 242.257812 146.726562 Z M 260.824219 128.15625 " fill-opacity="1" fill-rule="evenodd"/><path fill="#ffffff" d="M 232.847656 84.796875 L 245.359375 97.3125 L 232.847656 109.820312 L 220.339844 97.3125 Z M 232.847656 84.796875 " fill-opacity="1" fill-rule="evenodd"/><path fill="#ffffff" d="M 212.957031 0.203125 L 231.535156 18.777344 L 212.957031 37.34375 L 194.382812 18.777344 Z M 212.957031 0.203125 " fill-opacity="1" fill-rule="evenodd"/><path fill="#f68f26" d="M 152.988281 60.292969 L 177.6875 84.988281 L 152.988281 109.6875 L 128.292969 84.988281 Z M 152.988281 60.292969 " fill-opacity="1" fill-rule="evenodd"/><path fill="#f68f26" d="M 208 112.714844 L 221.632812 126.339844 L 208 139.972656 L 194.375 126.339844 Z M 208 112.714844 " fill-opacity="1" fill-rule="evenodd"/><path fill="#f68f26" d="M 251.648438 39.433594 L 266.464844 54.25 L 251.648438 69.0625 L 236.824219 54.25 Z M 251.648438 39.433594 " fill-opacity="1" fill-rule="evenodd"/><g clip-path="url(#7941f5ff16)"><path fill="#ffffff" d="M 102.851562 109.207031 L 102.089844 92.789062 L 108.265625 93.078125 L 130.015625 94.085938 L 120.902344 84.972656 L 127.171875 78.703125 L 90.476562 76.996094 L 86.09375 76.796875 C 84.257812 77.136719 82.507812 78.011719 81.101562 79.417969 L 25.191406 135.328125 L 6.328125 154.195312 C 5.453125 155.066406 4.789062 156.066406 4.324219 157.132812 C 2.8125 160.621094 3.484375 164.855469 6.328125 167.695312 L 11.328125 172.699219 L 27.683594 189.054688 L 43.671875 205.039062 L 98.261719 259.628906 L 114.246094 275.617188 L 130.601562 291.972656 L 135.605469 296.972656 C 138.445312 299.816406 142.679688 300.480469 146.167969 298.976562 C 147.234375 298.511719 148.242188 297.847656 149.117188 296.972656 L 223.890625 222.199219 C 225.308594 220.78125 226.183594 219.035156 226.515625 217.195312 L 226.3125 212.832031 L 225.804688 201.9375 L 224.929688 183.054688 L 215.871094 192.113281 L 209.828125 186.070312 L 210.246094 195.054688 L 210.535156 201.226562 L 194.121094 200.464844 L 141.480469 198.019531 L 140.292969 172.367188 C 140.0625 167.453125 135.847656 163.238281 130.933594 163.007812 L 105.28125 161.820312 L 102.835938 109.179688 Z M 42.246094 174.160156 L 125.320312 178.015625 L 129.175781 261.089844 L 129.5625 269.417969 L 33.910156 173.773438 L 42.234375 174.160156 Z M 145.277344 279.324219 L 145.171875 277.078125 L 144.464844 261.800781 L 142.214844 213.324219 L 208.21875 216.390625 L 147.417969 277.191406 L 145.277344 279.335938 Z M 40.722656 141.355469 L 86.953125 95.125 L 90.023438 161.128906 L 41.546875 158.882812 L 26.265625 158.171875 L 24.019531 158.066406 L 40.730469 141.355469 Z M 40.722656 141.355469 " fill-opacity="1" fill-rule="evenodd"/></g></svg>